# xmcd CD database file
#
# Track frame offsets:
#	150
#	22200
#	42650
#	62358
#	85703
#	122050
#	142568
#	165603
#	185730
#	202335
#
# Disc length: 3062 seconds
#
# Revision: 1
# Processed by: cddbd v1.5.2PL0 Copyright (c) Steve Scherf et al.
# Submitted via: CDex 1.51
#
DISCID=8b0bf40a
DTITLE=Chris Rea - The Road To Hell
DYEAR=1989
DGENRE=Rock
TTITLE0=The Road To Hell (Part I)
TTITLE1=The Road To Hell (Part II)
TTITLE2=You Must Be Evil
TTITLE3=Texas
TTITLE4=Looking For A Rainbow
TTITLE5=Your Warm And Tender Love
TTITLE6=Daytona
TTITLE7=That's What They Always Say
TTITLE8=I Just Wanna Be With You
TTITLE9=Tell Me There's A Heaven
EXTD=YEAR: 1989
EXTT0=
EXTT1=
EXTT2=
EXTT3=
EXTT4=
EXTT5=
EXTT6=
EXTT7=
EXTT8=
EXTT9=
PLAYORDER=
